<svg xmlns="http://www.w3.org/2000/svg" viewBox="0 0 32 32"><title>headphone</title><g id="headphone"><path d="M16,6C9.38,6,4,11.83,4,19v6a1,1,0,0,0,1,1H9a1,1,0,0,0,1-1V19a1,1,0,0,0-1-1H6.05a11.38,11.38,0,0,1,3.11-7H22.84A11.38,11.38,0,0,1,26,18H23a1,1,0,0,0-1,1v6a1,1,0,0,0,1,1h4a1,1,0,0,0,1-1V19C28,11.83,22.62,6,16,6ZM11.86,9a9.07,9.07,0,0,1,8.28,0Z"/><path d="M20,19a1,1,0,0,0-1,1v4a1,1,0,0,0,2,0V20A1,1,0,0,0,20,19Z"/><path d="M12,19a1,1,0,0,0-1,1v4a1,1,0,0,0,2,0V20A1,1,0,0,0,12,19Z"/></g></svg>