<svg xmlns="http://www.w3.org/2000/svg" viewBox="0 0 32 32"><title>random</title><g id="random"><path d="M27,21.24a.29.29,0,0,0,0-.09.76.76,0,0,0,0-.3V20.8a1,1,0,0,0-.1-.27l0-.05,0,0-2-3a1,1,0,1,0-1.66,1.1l1,1.45H19.37l-2.1-3.5,2.1-3.5h4.76l-1,1.45a1,1,0,0,0,.28,1.38A.94.94,0,0,0,24,16a1,1,0,0,0,.83-.45l2-3,0,0,0,0a1,1,0,0,0,.1-.27v0a.76.76,0,0,0,0-.3.29.29,0,0,0,0-.09.94.94,0,0,0-.12-.3h0l-2-3a1,1,0,0,0-1.66,1.1l1,1.45H18.8a1,1,0,0,0-.86.49L16.1,14.56l-1.84-3.07A1,1,0,0,0,13.4,11H6a1,1,0,0,0,0,2h6.83l2.1,3.5L12.83,20H6a1,1,0,0,0,0,2h7.4a1,1,0,0,0,.86-.49l1.84-3.07,1.84,3.07a1,1,0,0,0,.86.49h5.33l-1,1.45a1,1,0,0,0,.28,1.38A.94.94,0,0,0,24,25a1,1,0,0,0,.83-.45l2-3h0A.94.94,0,0,0,27,21.24Z"/></g></svg>