<svg xmlns="http://www.w3.org/2000/svg" viewBox="0 0 32 32"><title>remote</title><g id="remote"><path d="M24,3H8A1,1,0,0,0,7,4V29a1,1,0,0,0,1,1H24a1,1,0,0,0,1-1V4A1,1,0,0,0,24,3ZM15,16a1,1,0,0,1,2,0v3a1,1,0,0,1-2,0ZM11,6h2a1,1,0,0,1,0,2H11a1,1,0,0,1,0-2Zm0,3h2a1,1,0,0,1,0,2H11a1,1,0,0,1,0-2Zm0,3h2a1,1,0,0,1,0,2H11a1,1,0,0,1,0-2Zm3,10H11a1,1,0,0,1,0-2h3a1,1,0,0,1,0,2Zm3,4a1,1,0,0,1-2,0V23a1,1,0,0,1,2,0Zm4-4H18a1,1,0,0,1,0-2h3a1,1,0,0,1,0,2Zm0-8H19a1,1,0,0,1,0-2h2a1,1,0,0,1,0,2Zm0-3H19a1,1,0,0,1,0-2h2a1,1,0,0,1,0,2Zm0-3H19a1,1,0,0,1,0-2h2a1,1,0,0,1,0,2Z"/></g></svg>