<svg xmlns="http://www.w3.org/2000/svg" viewBox="0 0 32 32"><title>switch mode</title><g id="switch_mode" data-name="switch mode"><path d="M21,19H15.22a3,3,0,0,1,0,4H21a2,2,0,0,0,0-4Z"/><circle cx="13" cy="21" r="1"/><path d="M10,21a3,3,0,0,1,.76-2,2,2,0,0,0,0,4A3,3,0,0,1,10,21Z"/><circle cx="19" cy="12" r="1"/><path d="M16,12a3,3,0,0,1,.78-2H11a2,2,0,0,0,0,4h5.78A3,3,0,0,1,16,12Z"/><path d="M21.24,10a3,3,0,0,1,0,4,2,2,0,0,0,0-4Z"/><path d="M27,4H5A1,1,0,0,0,4,5V27a1,1,0,0,0,1,1H27a1,1,0,0,0,1-1V5A1,1,0,0,0,27,4ZM21,25H11a4,4,0,0,1,0-8H21a4,4,0,0,1,0,8Zm0-9H11a4,4,0,0,1,0-8H21a4,4,0,0,1,0,8Z"/></g></svg>