<svg xmlns="http://www.w3.org/2000/svg" viewBox="0 0 32 32"><title>tapes</title><g id="tapes"><circle cx="11" cy="18" r="1"/><polygon points="20.18 11 20.98 7 11.02 7 11.82 11 20.18 11"/><path d="M13.82,19h4.36a2.87,2.87,0,0,1,0-2H13.82a2.87,2.87,0,0,1,0,2Z"/><path d="M27,7H23a1.34,1.34,0,0,1,0,.2l-1,5a1,1,0,0,1-1,.8H11a1,1,0,0,1-1-.8l-1-5A1.34,1.34,0,0,1,9,7H5A1,1,0,0,0,4,8V24a1,1,0,0,0,1,1H27a1,1,0,0,0,1-1V8A1,1,0,0,0,27,7ZM21,21H11a3,3,0,0,1,0-6H21a3,3,0,0,1,0,6Z"/><circle cx="21" cy="18" r="1"/></g></svg>