<svg xmlns="http://www.w3.org/2000/svg" viewBox="0 0 32 32"><title>video player</title><g id="video_player" data-name="video player"><path d="M27,9V6a1,1,0,0,0-1-1H23V9Z"/><rect x="5" y="11" width="4" height="2"/><rect x="23" y="19" width="4" height="2"/><rect x="11" y="5" width="10" height="10"/><rect x="23" y="11" width="4" height="2"/><path d="M27,15v0h-.09Z"/><path d="M27,17l-.09,0H27Z"/><rect x="5" y="19" width="4" height="2"/><path d="M5,23v3a1,1,0,0,0,1,1H9V23Z"/><rect x="11" y="17" width="10" height="10"/><path d="M9,9V5H6A1,1,0,0,0,5,6V9Z"/><path d="M23,23v4h3a1,1,0,0,0,1-1V23Z"/><path d="M5,17v0h.09Z"/><path d="M5,15v0l.09,0Z"/></g></svg>