<svg xmlns="http://www.w3.org/2000/svg" viewBox="0 0 32 32"><title>video player_1</title><g id="video_player-2" data-name="video player"><path d="M27,9V6a1,1,0,0,0-1-1H23V9Z"/><rect x="5" y="15" width="4" height="2"/><rect x="5" y="11" width="4" height="2"/><rect x="23" y="15" width="4" height="2"/><rect x="23" y="11" width="4" height="2"/><rect x="23" y="19" width="4" height="2"/><rect x="5" y="19" width="4" height="2"/><path d="M23,23v4h3a1,1,0,0,0,1-1V23Z"/><path d="M21,5H11V27H21ZM19.51,16.86l-5,3A1,1,0,0,1,14,20a1,1,0,0,1-.49-.13A1,1,0,0,1,13,19V13a1,1,0,0,1,1.51-.86l5,3a1,1,0,0,1,0,1.72Z"/><path d="M5,23v3a1,1,0,0,0,1,1H9V23Z"/><path d="M9,9V5H6A1,1,0,0,0,5,6V9Z"/></g></svg>